# xmcd
#
# Track frame offsets: 
#        150
#        19602
#        45102
#        66667
#        91102
#        119662
#        159665
#        200212
#        225477
#        258032
#        274802
#
# Disc length: 3894 seconds
#
# Revision: 0
# Processed by: cddbd v1.5.2PL0 Copyright (c) Steve Scherf et al.
# Submitted via: ExactAudioCopy v0.99pb5
#
DISCID=910f340b
DTITLE=Eric Clapton  - Superman In Europe - Disc 1 (021401)
DYEAR=1900
DGENRE=
TTITLE0=Key To The Highway
TTITLE1=Reptile
TTITLE2=Tears In Heaven
TTITLE3=Bell Bottom Blues
TTITLE4=Change The World
TTITLE5=My Father's Eyes
TTITLE6=River Of Tears
TTITLE7=Goin' Down Slow
TTITLE8=She's Gone
TTITLE9=It's Alright
TTITLE10=Finally Got Myself Together
EXTD=
EXTT0=
EXTT1=
EXTT2=
EXTT3=
EXTT4=
EXTT5=
EXTT6=
EXTT7=
EXTT8=
EXTT9=
EXTT10=
PLAYORDER=
